<svg width="30" height="30" viewBox="0 0 30 30" fill="none" xmlns="http://www.w3.org/2000/svg">
<path d="M13.524 3.95197H3.78312C3.04499 3.95197 2.33709 4.24519 1.81516 4.76712C1.29322 5.28906 1 5.99695 1 6.73508V26.2169C1 26.955 1.29322 27.6629 1.81516 28.1848C2.33709 28.7068 3.04499 29 3.78312 29H23.2649C24.003 29 24.7109 28.7068 25.2329 28.1848C25.7548 27.6629 26.048 26.955 26.048 26.2169V16.476" stroke="#1C71A7" stroke-width="2" stroke-linecap="round" stroke-linejoin="round"/>
<path d="M23.9606 1.8646C24.5142 1.31101 25.265 1 26.0479 1C26.8308 1 27.5817 1.31101 28.1353 1.8646C28.6889 2.4182 28.9999 3.16904 28.9999 3.95194C28.9999 4.73484 28.6889 5.48568 28.1353 6.03928L14.9155 19.2591L9.34924 20.6506L10.7408 15.0844L23.9606 1.8646Z" stroke="#1C71A7" stroke-width="2" stroke-linecap="round" stroke-linejoin="round"/>
</svg>
