<?xml version="1.0" encoding="UTF-8"?>
<!DOCTYPE svg PUBLIC "-//W3C//DTD SVG 1.1//EN" "http://www.w3.org/Graphics/SVG/1.1/DTD/svg11.dtd">
<!-- Creator: CorelDRAW 2020 (64 Bit) -->
<svg xmlns="http://www.w3.org/2000/svg" xml:space="preserve" width="400px" height="347px" version="1.1" style="shape-rendering:geometricPrecision; text-rendering:geometricPrecision; image-rendering:optimizeQuality; fill-rule:evenodd; clip-rule:evenodd"
viewBox="0 0 355.82 308.23"
 xmlns:xlink="http://www.w3.org/1999/xlink"
 xmlns:xodm="http://www.corel.com/coreldraw/odm/2003">
 <defs>
  <style type="text/css">
   <![CDATA[
    .fil0 {fill:#F25836;fill-rule:nonzero}
   ]]>
  </style>
 </defs>
 <g id="Camada_x0020_1">
  <metadata id="CorelCorpID_0Corel-Layer"/>
  <g id="_1749232090768">
   <path class="fil0" d="M178.93 4.75l174.3 301.9 -350.64 0c58.44,-101.22 116.87,-202.45 175.32,-303.66l1.02 1.76zm84.6 151.24l-85.62 -148.29 -171.23 296.58 342.46 0 -85.61 -148.29z"/>
   <path class="fil0" d="M180.22 4l175.6 304.15 -355.82 0c59.27,-102.74 118.62,-205.43 177.91,-308.15l2.31 4zm82.01 152.74l-84.32 -146.05 -168.64 292.09 337.28 0 -84.32 -146.04z"/>
   <path class="fil0" d="M93.63 155.76c56.86,0 113.72,-0.02 170.58,0.01 -28.77,49.82 -57.52,99.66 -86.3,149.47 -28.74,-49.84 -57.55,-99.64 -86.3,-149.48l2.02 0zm84.28 2.33l-82.27 0 82.27 142.5 82.27 -142.5 -82.27 0z"/>
   <path class="fil0" d="M93.62 154.26l51.92 0c39.56,0 79.11,-0.01 118.67,0.01l2.58 0.01 -24.35 42.19c-22.41,38.82 -44.82,77.65 -63.24,109.52l-1.29 2.24 -1.3 -2.25c-13.82,-23.97 -30.35,-52.59 -46.94,-81.31l-40.65 -70.41 4.6 0zm84.29 5.32l-79.68 0.01 79.68 138 79.68 -138 -79.68 -0.01z"/>
  </g>
 </g>
</svg>
